<svg width="18" height="18" viewBox="0 0 18 18" fill="none" xmlns="http://www.w3.org/2000/svg">
<path fill-rule="evenodd" clip-rule="evenodd" d="M15.8858 15.0278C15.8858 15.5771 15.6672 16.1045 15.2792 16.4933C14.8902 16.8815 14.3632 17.0997 13.8137 17.0999H4.7718C4.22251 17.0999 3.69507 16.8814 3.30627 16.4933C2.91806 16.1044 2.69994 15.5773 2.69971 15.0278V2.972C2.69971 2.4227 2.91822 1.89526 3.30627 1.50646C3.69523 1.11826 4.22226 0.900133 4.7718 0.899902H11.2413C11.5909 0.899902 11.9262 1.03854 12.1733 1.28644L15.4992 4.61234C15.7471 4.85948 15.8858 5.19479 15.8858 5.5444V15.0278ZM14.7555 15.0278V5.5444C14.7556 5.51965 14.7507 5.49513 14.7413 5.47225C14.7319 5.44936 14.718 5.42856 14.7005 5.41104L11.3746 2.08514C11.3571 2.06766 11.3363 2.0538 11.3134 2.04436C11.2905 2.03493 11.266 2.03009 11.2413 2.03013H4.7718C4.52213 2.03053 4.28279 2.12989 4.10624 2.30644C3.9297 2.48299 3.83034 2.72232 3.82994 2.972V15.0278C3.83034 15.2775 3.9297 15.5168 4.10624 15.6934C4.28279 15.8699 4.52213 15.9693 4.7718 15.9697H13.8137C14.0633 15.9693 14.3027 15.8699 14.4792 15.6934C14.6558 15.5168 14.7551 15.2775 14.7555 15.0278Z" fill="white"/>
<path fill-rule="evenodd" clip-rule="evenodd" d="M10.9881 1.84175C10.9881 1.69188 11.0476 1.54814 11.1536 1.44216C11.2596 1.33618 11.4033 1.27664 11.5532 1.27664C11.7031 1.27664 11.8468 1.33618 11.9528 1.44216C12.0588 1.54814 12.1183 1.69188 12.1183 1.84175V4.47896C12.1183 4.58294 12.2027 4.66733 12.3067 4.66733H14.9439C15.0938 4.66733 15.2375 4.72687 15.3435 4.83285C15.4495 4.93883 15.509 5.08257 15.509 5.23245C15.509 5.38233 15.4495 5.52607 15.3435 5.63205C15.2375 5.73803 15.0938 5.79757 14.9439 5.79757H12.3067C11.957 5.79757 11.6216 5.65864 11.3743 5.41136C11.127 5.16407 10.9881 4.82868 10.9881 4.47896V1.84175ZM6.27878 8.43478C6.1289 8.43478 5.98516 8.37524 5.87918 8.26926C5.7732 8.16328 5.71366 8.01954 5.71366 7.86966C5.71366 7.71978 5.7732 7.57604 5.87918 7.47006C5.98516 7.36408 6.1289 7.30454 6.27878 7.30454H12.3067C12.4566 7.30454 12.6003 7.36408 12.7063 7.47006C12.8123 7.57604 12.8718 7.71978 12.8718 7.86966C12.8718 8.01954 12.8123 8.16328 12.7063 8.26926C12.6003 8.37524 12.4566 8.43478 12.3067 8.43478H6.27878ZM6.27878 11.072C6.1289 11.072 5.98516 11.0124 5.87918 10.9065C5.7732 10.8005 5.71366 10.6567 5.71366 10.5069C5.71366 10.357 5.7732 10.2133 5.87918 10.1073C5.98516 10.0013 6.1289 9.94175 6.27878 9.94175H12.3067C12.4566 9.94175 12.6003 10.0013 12.7063 10.1073C12.8123 10.2133 12.8718 10.357 12.8718 10.5069C12.8718 10.6567 12.8123 10.8005 12.7063 10.9065C12.6003 11.0124 12.4566 11.072 12.3067 11.072H6.27878ZM6.27878 13.7092C6.1289 13.7092 5.98516 13.6497 5.87918 13.5437C5.7732 13.4377 5.71366 13.294 5.71366 13.1441C5.71366 12.9942 5.7732 12.8505 5.87918 12.7445C5.98516 12.6385 6.1289 12.579 6.27878 12.579H9.66947C9.81935 12.579 9.96309 12.6385 10.0691 12.7445C10.1751 12.8505 10.2346 12.9942 10.2346 13.1441C10.2346 13.294 10.1751 13.4377 10.0691 13.5437C9.96309 13.6497 9.81935 13.7092 9.66947 13.7092H6.27878Z" fill="white"/>
</svg>
