<svg width="24" height="24" viewBox="0 0 24 24" fill="none" xmlns="http://www.w3.org/2000/svg">
<path fill-rule="evenodd" clip-rule="evenodd" d="M18.8513 6.45129C18.9368 6.36587 19.0047 6.26446 19.051 6.15282C19.0973 6.04118 19.1212 5.92152 19.1213 5.80065C19.1213 5.67979 19.0976 5.56009 19.0514 5.4484C19.0052 5.33671 18.9375 5.2352 18.8521 5.14969C18.7667 5.06417 18.6653 4.99631 18.5536 4.94999C18.442 4.90367 18.3223 4.87979 18.2015 4.87972C18.0806 4.87964 17.9609 4.90337 17.8492 4.94956C17.7375 4.99574 17.636 5.06347 17.5505 5.14889L12.0001 10.6993L6.45129 5.14889C6.27858 4.97618 6.04433 4.87915 5.80009 4.87915C5.55584 4.87915 5.3216 4.97618 5.14889 5.14889C4.97618 5.3216 4.87915 5.55584 4.87915 5.80009C4.87915 6.04433 4.97618 6.27858 5.14889 6.45129L10.6993 12.0001L5.14889 17.5489C5.06337 17.6344 4.99553 17.7359 4.94925 17.8477C4.90297 17.9594 4.87915 18.0791 4.87915 18.2001C4.87915 18.321 4.90297 18.4408 4.94925 18.5525C4.99553 18.6642 5.06337 18.7658 5.14889 18.8513C5.3216 19.024 5.55584 19.121 5.80009 19.121C5.92103 19.121 6.04078 19.0972 6.15251 19.0509C6.26425 19.0046 6.36577 18.9368 6.45129 18.8513L12.0001 13.3009L17.5505 18.8513C17.7232 19.0238 17.9574 19.1206 18.2015 19.1205C18.4455 19.1203 18.6796 19.0232 18.8521 18.8505C19.0246 18.6778 19.1214 18.4436 19.1213 18.1995C19.1211 17.9554 19.024 17.7214 18.8513 17.5489L13.3009 12.0001L18.8513 6.45129Z" fill="#888888"/>
</svg>
