<svg width="20" height="20" viewBox="0 0 20 20" fill="none" xmlns="http://www.w3.org/2000/svg">
<path d="M12.6501 13.5338L17.6826 18.5676C17.7407 18.6257 17.8097 18.6718 17.8856 18.7032C17.9615 18.7347 18.0429 18.7508 18.1251 18.7508C18.2072 18.7508 18.2886 18.7347 18.3645 18.7032C18.4405 18.6718 18.5094 18.6257 18.5676 18.5676C18.6257 18.5094 18.6718 18.4405 18.7032 18.3645C18.7347 18.2886 18.7508 18.2072 18.7508 18.1251C18.7508 18.0429 18.7347 17.9615 18.7032 17.8856C18.6718 17.8097 18.6257 17.7407 18.5676 17.6826L2.31756 1.43256C2.25945 1.37445 2.19046 1.32835 2.11454 1.2969C2.03861 1.26545 1.95724 1.24927 1.87506 1.24927C1.79288 1.24927 1.7115 1.26545 1.63558 1.2969C1.55965 1.32835 1.49067 1.37445 1.43256 1.43256C1.37445 1.49067 1.32835 1.55965 1.2969 1.63558C1.26545 1.7115 1.24927 1.79288 1.24927 1.87506C1.24927 1.95724 1.26545 2.03861 1.2969 2.11454C1.32835 2.19046 1.37445 2.25945 1.43256 2.31756L5.47006 6.35506C4.92066 6.74449 4.42622 7.20614 4.00006 7.72756C3.39681 8.46776 2.92458 9.30567 2.60381 10.2051C2.57756 10.2813 2.54506 10.3863 2.54506 10.3863L2.52256 10.4638C2.52256 10.4638 2.42756 11.0851 2.96631 11.2276C3.12643 11.2699 3.2968 11.2469 3.44 11.1637C3.5832 11.0805 3.68753 10.9439 3.73006 10.7838L3.73131 10.7801L3.74131 10.7488L3.78506 10.6126C4.0575 9.85321 4.45693 9.14565 4.96631 8.52006C5.3676 8.0287 5.84136 7.6013 6.37131 7.25256L8.34381 9.22506C7.94576 9.47454 7.60908 9.81055 7.35882 10.2081C7.10855 10.6057 6.95113 11.0545 6.89827 11.5213C6.84541 11.9881 6.89846 12.4608 7.05349 12.9042C7.20852 13.3477 7.46153 13.7505 7.79371 14.0827C8.12589 14.4148 8.52868 14.6678 8.97213 14.8229C9.41558 14.9779 9.88828 15.031 10.3551 14.9781C10.8218 14.9252 11.2707 14.7678 11.6683 14.5176C12.0658 14.2673 12.4018 13.9306 12.6513 13.5326M11.7263 12.6076C11.6065 12.8901 11.4191 13.139 11.1806 13.3322C10.9422 13.5255 10.6599 13.6572 10.3587 13.7159C10.0574 13.7746 9.74632 13.7584 9.45276 13.6688C9.15919 13.5792 8.89212 13.4189 8.67497 13.202C8.45783 12.9851 8.29726 12.7182 8.20736 12.4247C8.11746 12.1312 8.10097 11.8202 8.15936 11.5188C8.21774 11.2175 8.34921 10.9351 8.54221 10.6965C8.73522 10.4578 8.98386 10.2702 9.26631 10.1501L11.7263 12.6076ZM7.90006 5.25006L8.96756 6.31756C9.29256 6.27256 9.63672 6.25006 10.0001 6.25006C12.5551 6.25006 14.1076 7.39006 15.0351 8.52131C15.5444 9.1469 15.9439 9.85446 16.2163 10.6138C16.2371 10.6746 16.2517 10.7201 16.2601 10.7501L16.2701 10.7813V10.7851L16.2713 10.7863C16.3176 10.9423 16.4228 11.0741 16.5647 11.1537C16.7066 11.2333 16.874 11.2545 17.0312 11.2126C17.1885 11.1708 17.3232 11.0693 17.4068 10.9297C17.4903 10.7901 17.5162 10.6234 17.4788 10.4651V10.4613L17.4776 10.4563L17.4726 10.4401C17.4514 10.361 17.4264 10.2829 17.3976 10.2063C17.0768 9.30692 16.6046 8.46901 16.0013 7.72881C14.8813 6.36131 12.9951 5.00006 10.0026 5.00006C9.23006 5.00006 8.53131 5.09006 7.90131 5.24881" fill="#888888"/>
</svg>
