<svg width="24" height="24" viewBox="0 0 24 24" fill="none" xmlns="http://www.w3.org/2000/svg">
<path d="M11.0277 12.9723H6.16656C5.62962 12.9723 5.19434 12.5371 5.19434 12.0001C5.19434 11.4632 5.62961 11.0279 6.16656 11.0279H11.0277V6.16677C11.0277 5.62983 11.4629 5.19455 11.9999 5.19455C12.5368 5.19455 12.9721 5.62983 12.9721 6.16677V11.0279H17.8332C18.3702 11.0279 18.8054 11.4632 18.8054 12.0001C18.8054 12.5371 18.3702 12.9723 17.8332 12.9723H12.9721V17.8334C12.9721 18.3704 12.5368 18.8057 11.9999 18.8057C11.4629 18.8057 11.0277 18.3704 11.0277 17.8334V12.9723Z" fill="white"/>
</svg>
