<svg width="20" height="20" viewBox="0 0 20 20" fill="none" xmlns="http://www.w3.org/2000/svg">
<path d="M10 2.5C10 6.64213 13.3578 10 17.5 10C13.3578 10 10 13.3578 10 17.5C10 13.3578 6.64213 10 2.5 10C6.64213 10 10 6.64213 10 2.5Z" fill="url(#paint0_linear_4012_1468)"/>
<path d="M15.0198 2.5C15.0198 3.86979 16.1302 4.98022 17.5 4.98022C16.1302 4.98022 15.0198 6.09065 15.0198 7.46045C15.0198 6.09065 13.9093 4.98022 12.5396 4.98022C13.9093 4.98022 15.0198 3.86979 15.0198 2.5Z" fill="url(#paint1_linear_4012_1468)"/>
<path d="M5.50024 4.3999C5.50024 5.22846 6.17192 5.90015 7.00049 5.90015C6.17192 5.90015 5.50024 6.57182 5.50024 7.40039C5.50024 6.57182 4.82856 5.90015 4 5.90015C4.82856 5.90015 5.50024 5.22846 5.50024 4.3999Z" fill="url(#paint2_linear_4012_1468)"/>
<path d="M14.0435 12.9106C14.0435 14.3148 15.1818 15.4531 16.5859 15.4531C15.1818 15.4531 14.0435 16.5914 14.0435 17.9956C14.0435 16.5914 12.9051 15.4531 11.501 15.4531C12.9051 15.4531 14.0435 14.3148 14.0435 12.9106Z" fill="url(#paint3_linear_4012_1468)"/>
<defs>
<linearGradient id="paint0_linear_4012_1468" x1="6.84801" y1="16.4715" x2="14.3843" y2="2.5" gradientUnits="userSpaceOnUse">
<stop stop-color="#A886F8"/>
<stop offset="1" stop-color="#65E2FE"/>
</linearGradient>
<linearGradient id="paint1_linear_4012_1468" x1="13.9774" y1="7.12031" x2="16.4696" y2="2.5" gradientUnits="userSpaceOnUse">
<stop stop-color="#A886F8"/>
<stop offset="1" stop-color="#65E2FE"/>
</linearGradient>
<linearGradient id="paint2_linear_4012_1468" x1="4.86974" y1="7.19465" x2="6.37725" y2="4.3999" gradientUnits="userSpaceOnUse">
<stop stop-color="#A886F8"/>
<stop offset="1" stop-color="#65E2FE"/>
</linearGradient>
<linearGradient id="paint3_linear_4012_1468" x1="12.9749" y1="17.6469" x2="15.5297" y2="12.9106" gradientUnits="userSpaceOnUse">
<stop stop-color="#A886F8"/>
<stop offset="1" stop-color="#65E2FE"/>
</linearGradient>
</defs>
</svg>
