<svg width="18" height="18" viewBox="0 0 18 18" fill="none" xmlns="http://www.w3.org/2000/svg">
<mask id="mask0_92_8586" style="mask-type:luminance" maskUnits="userSpaceOnUse" x="0" y="0" width="18" height="18">
<path d="M18 0H0V18H18V0Z" fill="white"/>
</mask>
<g mask="url(#mask0_92_8586)">
<path d="M13.1866 5.21783C13.4794 4.92493 13.4794 4.45006 13.1866 4.15717C12.8937 3.86428 12.4188 3.86428 12.1259 4.15717L4.15909 12.124L1.28033 9.24525C0.987435 8.95237 0.512563 8.95237 0.21967 9.24525C-0.0732233 9.53812 -0.0732232 10.013 0.21967 10.3059L3.62876 13.7149C3.92165 14.0079 4.39653 14.0079 4.68942 13.7149L13.1866 5.21783Z" fill="#65E2FE"/>
<path d="M17.6867 5.21783C17.9796 4.92493 17.9796 4.45006 17.6867 4.15717C17.3937 3.86428 16.9189 3.86428 16.626 4.15717L8.12884 12.6543C7.83596 12.9472 7.83596 13.4221 8.12884 13.7149C8.42171 14.0079 8.89661 14.0079 9.18949 13.7149L17.6867 5.21783Z" fill="#65E2FE"/>
</g>
</svg>
