<svg width="20" height="20" viewBox="0 0 20 20" fill="none" xmlns="http://www.w3.org/2000/svg">
<path d="M3.72998 10.7812V10.785C3.70893 10.8644 3.67243 10.9389 3.62258 11.0041C3.57273 11.0694 3.5105 11.1242 3.43946 11.1654C3.36841 11.2067 3.28993 11.2335 3.20852 11.2443C3.1271 11.2552 3.04435 11.2499 2.96498 11.2287C2.42623 11.0862 2.52123 10.465 2.52123 10.465L2.54373 10.3875C2.54373 10.3875 2.57623 10.2825 2.60248 10.2062C2.92325 9.30686 3.39548 8.46895 3.99873 7.72875C5.11998 6.36125 7.00623 5 9.99998 5C12.9937 5 14.88 6.36125 16.0025 7.72875C16.6057 8.46895 17.078 9.30686 17.3987 10.2062C17.4256 10.2835 17.4506 10.3615 17.4737 10.44L17.4775 10.4562V10.4613L17.4787 10.4638C17.5184 10.6228 17.4939 10.7911 17.4107 10.9324C17.3274 11.0736 17.1919 11.1764 17.0336 11.2187C16.8752 11.261 16.7065 11.2394 16.5639 11.1585C16.4213 11.0776 16.3162 10.9439 16.2712 10.7862L16.27 10.7812L16.26 10.75L16.2162 10.6138C15.9438 9.85441 15.5444 9.14685 15.035 8.52125C14.1075 7.39 12.5562 6.25 9.99998 6.25C7.44373 6.25 5.89373 7.39 4.96498 8.52125C4.4556 9.14685 4.05618 9.85441 3.78373 10.6138L3.73998 10.75L3.72998 10.7812ZM9.99998 8.75C9.17118 8.75 8.37632 9.07924 7.79027 9.66529C7.20422 10.2513 6.87498 11.0462 6.87498 11.875C6.87498 12.7038 7.20422 13.4987 7.79027 14.0847C8.37632 14.6708 9.17118 15 9.99998 15C10.8288 15 11.6236 14.6708 12.2097 14.0847C12.7957 13.4987 13.125 12.7038 13.125 11.875C13.125 11.0462 12.7957 10.2513 12.2097 9.66529C11.6236 9.07924 10.8288 8.75 9.99998 8.75ZM8.12498 11.875C8.12498 11.3777 8.32252 10.9008 8.67415 10.5492C9.02578 10.1975 9.5027 10 9.99998 10C10.4973 10 10.9742 10.1975 11.3258 10.5492C11.6774 10.9008 11.875 11.3777 11.875 11.875C11.875 12.3723 11.6774 12.8492 11.3258 13.2008C10.9742 13.5525 10.4973 13.75 9.99998 13.75C9.5027 13.75 9.02578 13.5525 8.67415 13.2008C8.32252 12.8492 8.12498 12.3723 8.12498 11.875Z" fill="#888888"/>
</svg>
