<svg width="22" height="23" viewBox="0 0 22 23" fill="none" xmlns="http://www.w3.org/2000/svg">
<path d="M14.2969 20.1505C14.0427 20.205 13.7765 20.2517 13.4867 20.2831C12.9698 20.3529 12.372 20.3786 11.7441 20.3597L10.0176 20.3203C5.28155 20.2197 3.29412 18.15 3.38701 13.4258L3.46797 9.12351C3.48417 8.1485 3.57719 7.34113 3.75609 6.64831C4.69464 2.81686 7.97872 2.44089 10.382 2.48874L12.0967 2.52042C14.4999 2.56827 16.1293 3.1091 17.2194 4.23583C18.2997 5.36465 18.7849 7.00953 18.737 9.41282L18.654 13.7054C18.5794 17.4643 17.1913 19.5308 14.2969 20.1505ZM8.12164 4.15905C6.48866 4.50873 5.59663 5.40538 5.21226 7.00123C5.07109 7.5837 4.98648 8.28701 4.96679 9.15027L4.88584 13.4526C4.80704 17.3351 6.15969 18.7329 10.0444 18.8215L11.7709 18.8609C12.3261 18.8749 12.8416 18.8463 13.2997 18.7891C16.016 18.4836 17.0869 17.0373 17.1454 13.6807L17.2284 9.38815C17.2643 7.40671 16.923 6.0992 16.1332 5.27633C15.3434 4.45346 14.0513 4.05517 12.0601 4.02135L10.3455 3.98966C9.49199 3.96789 8.74746 4.02505 8.12164 4.15905Z" fill="#565656"/>
<path fill-rule="evenodd" clip-rule="evenodd" d="M3.36413 13.6625C3.28829 17.077 4.33142 19.0703 6.75881 19.9145C7.60886 20.2101 8.6125 20.3686 9.81694 20.4064L11.4801 20.4342C12.5835 20.458 13.4923 20.3717 14.2635 20.1635C14.5682 20.0789 14.7866 19.8161 14.8129 19.497C14.8297 19.1746 14.6564 18.8814 14.364 18.748L11.6862 18.9284C11.6545 18.9279 11.6253 18.9284 11.596 18.9288C11.5668 18.9292 11.5375 18.9296 11.5059 18.9292L9.84276 18.9013C6.0931 18.8148 4.78882 17.4507 4.86588 13.6977L4.95442 9.54647C5.04421 5.78737 6.30821 3.7075 10.0579 3.794L11.4142 3.82105L13.2126 3.98011C13.297 3.87966 13.3814 3.79123 13.465 3.70845C13.6638 3.5023 13.734 3.20909 13.649 2.93601C13.564 2.66293 13.3356 2.46706 13.042 2.42847C12.6917 2.37017 12.2872 2.34596 11.7435 2.32627L10.0837 2.28896C5.48028 2.1914 3.5568 4.88892 3.45267 9.51121L3.36413 13.6625Z" fill="#565656"/>
<path d="M13.9162 10.343C13.8576 10.3555 13.7968 10.3583 13.7263 10.3632L8.72622 10.176C8.31415 10.1619 7.99363 9.81128 8.00765 9.39921C8.02168 8.98714 8.37234 8.66661 8.78442 8.68064L13.7845 8.86786C14.1965 8.88189 14.517 9.23255 14.503 9.64462C14.4939 9.98406 14.2389 10.2739 13.9162 10.343Z" fill="#565656"/>
<path d="M11.7589 14.2615C11.7003 14.274 11.6395 14.2768 11.5689 14.2817L8.56851 14.1674C8.15644 14.1534 7.83591 13.8027 7.84994 13.3907C7.86397 12.9786 8.21463 12.6581 8.6267 12.6721L11.6271 12.7864C12.0392 12.8004 12.3597 13.1511 12.3457 13.5631C12.3387 13.9124 12.0914 14.1903 11.7589 14.2615Z" fill="#565656"/>
</svg>
