<svg width="22" height="22" viewBox="0 0 22 22" fill="none" xmlns="http://www.w3.org/2000/svg">
<path d="M3.13272 9.2892C2.56037 9.52944 2.20511 9.95711 2.19974 10.5625C2.19605 10.9858 2.48169 11.5543 3.05404 11.7866C3.28979 11.8826 6.5999 12.3278 6.5999 12.3278C6.5999 12.3278 7.47603 15.0972 7.79177 16.0705C7.8832 16.3521 7.9353 16.4902 8.13594 16.6741C8.47632 16.9857 9.05175 16.888 9.30061 16.6381C9.95903 15.9781 10.9997 14.9599 10.9997 14.9599L11.4377 15.3163C11.4377 15.3163 13.3826 16.8677 14.4457 17.5981C15.0716 18.0284 15.5061 18.4773 16.2106 18.4799C16.5695 18.4817 17.1451 18.303 17.5256 17.8674C17.777 17.5796 17.9383 17.1194 18.0007 16.7067C18.1426 15.7695 19.8067 5.63545 19.7997 5.28082C19.7884 4.71498 19.3124 4.39641 18.9168 4.39993C18.6683 4.40257 18.4635 4.47474 18.0078 4.61378C14.4831 5.69002 3.36618 9.19152 3.13272 9.2892ZM16.2797 7.03992C16.2797 7.03992 11.6351 11.0826 9.77907 12.943C9.18446 13.5387 9.14248 14.5613 9.14248 14.5613L8.18311 11.4918L16.2797 7.03992Z" fill="#181818"/>
</svg>
