<svg width="24" height="24" viewBox="0 0 24 24" fill="none" xmlns="http://www.w3.org/2000/svg">
<path fill-rule="evenodd" clip-rule="evenodd" d="M9.50005 14.7C6.84908 14.7 4.70005 16.8491 4.70005 19.5V21C4.70005 21.3866 4.38665 21.7 4.00005 21.7C3.61345 21.7 3.30005 21.3866 3.30005 21V19.5C3.30005 16.0758 6.07588 13.3 9.50005 13.3H12.5C15.9242 13.3 18.7 16.0759 18.7 19.5V21C18.7 21.3866 18.3866 21.7 18 21.7C17.6134 21.7 17.3 21.3866 17.3 21V19.5C17.3 16.849 15.151 14.7 12.5 14.7H9.50005ZM7.00005 17.3C7.38665 17.3 7.70005 17.6134 7.70005 18V21C7.70005 21.3866 7.38665 21.7 7.00005 21.7C6.61345 21.7 6.30005 21.3866 6.30005 21V18C6.30005 17.6134 6.61345 17.3 7.00005 17.3ZM15 17.3C15.3866 17.3 15.7 17.6134 15.7 18V21C15.7 21.3866 15.3866 21.7 15 21.7C14.6134 21.7 14.3 21.3866 14.3 21V18C14.3 17.6134 14.6134 17.3 15 17.3Z" fill="white"/>
<path fill-rule="evenodd" clip-rule="evenodd" d="M17.5 3.70005C16.2206 3.70005 15.0887 4.33168 14.3989 5.30328C14.1751 5.61851 13.7382 5.69264 13.4229 5.46884C13.1077 5.24505 13.0336 4.80808 13.2574 4.49284C14.1984 3.16731 15.7479 2.30005 17.5 2.30005C20.3719 2.30005 22.7 4.62817 22.7 7.50005C22.7 10.3719 20.3719 12.7 17.5 12.7C16.0614 12.7 14.7582 12.1149 13.8174 11.1714C13.5445 10.8976 13.5451 10.4544 13.8189 10.1814C14.0927 9.90848 14.5359 9.90913 14.8089 10.1829C15.4977 10.8738 16.4485 11.3 17.5 11.3C19.5987 11.3 21.3 9.59873 21.3 7.50005C21.3 5.40137 19.5987 3.70005 17.5 3.70005Z" fill="white"/>
<path d="M17.5 9.30003C17.8866 9.30003 18.2 9.61343 18.2 10V10.2C18.2 10.5866 17.8866 10.9 17.5 10.9C17.1134 10.9 16.8 10.5866 16.8 10.2V10C16.8 9.61343 17.1134 9.30003 17.5 9.30003Z" fill="white"/>
<path d="M17.0825 6.3883L17.4192 5.88323C17.5312 5.75668 17.831 5.57852 18.1336 5.87831L18.8766 4.65747C18.0357 4.02673 16.8374 4.23198 16.2543 5.10667L15.9176 5.61175C15.7032 5.93342 15.7901 6.36803 16.1118 6.58247C16.4334 6.79691 16.868 6.70998 17.0825 6.3883Z" fill="white"/>
<path d="M18.0829 6.42729L17.3587 7.15147C17.001 7.5091 16.8 7.99422 16.8 8.50002C16.8 8.88662 17.1134 9.20003 17.5 9.20003C17.8866 9.20003 18.2 8.88662 18.2 8.50002C18.2 8.36557 18.2535 8.23659 18.3486 8.14148L19.0728 7.41724C19.8607 6.62928 19.7681 5.32609 18.8766 4.65747L18.1336 5.87831C18.2475 6.04413 18.2341 6.27603 18.0829 6.42729Z" fill="white"/>
<path fill-rule="evenodd" clip-rule="evenodd" d="M6.30005 8.00006C6.30005 5.40431 8.40431 3.30005 11 3.30005C11.7787 3.30005 12.9312 3.5279 13.9091 4.23199C14.9226 4.96177 15.7 6.17192 15.7 8.00006C15.7 9.61977 14.8802 11.0477 13.6359 11.8918C12.8646 12.4151 11.9558 12.7 11 12.7C8.40432 12.7 6.30005 10.5959 6.30005 8.00006ZM11 4.70005C9.17751 4.70005 7.70005 6.17751 7.70005 8.00006C7.70005 9.82264 9.1775 11.3 11 11.3C11.6735 11.3 12.3088 11.1004 12.85 10.7333C13.7265 10.1386 14.3 9.13621 14.3 8.00006C14.3 6.62821 13.7441 5.83836 13.091 5.36813C12.4023 4.87221 11.5547 4.70005 11 4.70005Z" fill="white"/>
</svg>
