<svg width="40" height="40" viewBox="0 0 40 40" fill="none" xmlns="http://www.w3.org/2000/svg">
<rect width="40" height="40" rx="8" fill="#41EC88" fill-opacity="0.2"/>
<path d="M23.3775 28.3086C23.3151 28.3526 23.2455 28.3709 23.1758 28.3709C23.0548 28.3709 22.9411 28.3159 22.8678 28.2096L20.3671 24.4622V27.9786C20.3671 28.1839 20.2021 28.3452 20.0005 28.3452C19.7988 28.3452 19.6338 28.1839 19.6338 27.9786V23.6189H20.6861L23.4801 27.8026C23.5938 27.9712 23.5461 28.1986 23.3775 28.3086Z" fill="#41EC88"/>
<path d="M20.1947 23.6189L19.6337 24.4549L17.0927 28.2462C17.0661 28.2867 17.0318 28.3214 16.9918 28.3485C16.9517 28.3756 16.9067 28.3944 16.8593 28.404C16.8119 28.4135 16.763 28.4136 16.7156 28.4041C16.6682 28.3947 16.6231 28.3759 16.583 28.3489C16.543 28.322 16.5086 28.2875 16.4819 28.2473C16.4553 28.2071 16.4368 28.162 16.4276 28.1146C16.4184 28.0673 16.4187 28.0186 16.4283 27.9713C16.438 27.924 16.4569 27.8792 16.484 27.8392L19.311 23.6189H20.1947Z" fill="#41EC88"/>
<path d="M28.8002 11.5886H11.2002C10.9985 11.5886 10.8335 11.7536 10.8335 11.9553C10.8335 12.157 10.9985 12.322 11.2002 12.322H11.7098V23.2523C11.7098 23.454 11.8748 23.619 12.0765 23.619H27.9238C28.1255 23.619 28.2905 23.454 28.2905 23.2523V12.322H28.8002C29.0018 12.322 29.1668 12.157 29.1668 11.9553C29.1668 11.7536 29.0018 11.5886 28.8002 11.5886ZM17.4298 21.012C17.4298 21.2136 17.2648 21.3786 17.0632 21.3786H15.1198C14.9182 21.3786 14.7532 21.2136 14.7532 21.012V18.7863C14.7532 18.5846 14.9182 18.4196 15.1198 18.4196H17.0632C17.2648 18.4196 17.4298 18.5846 17.4298 18.7863V21.012ZM21.3385 21.012C21.3385 21.2136 21.1735 21.3786 20.9718 21.3786H19.0285C18.8268 21.3786 18.6618 21.2136 18.6618 21.012V16.5863C18.6618 16.3846 18.8268 16.2196 19.0285 16.2196H20.9718C21.1735 16.2196 21.3385 16.3846 21.3385 16.5863V21.012ZM25.2472 21.012C25.2472 21.2136 25.0822 21.3786 24.8805 21.3786H22.9372C22.7355 21.3786 22.5705 21.2136 22.5705 21.012V14.2726C22.5705 14.0673 22.7355 13.906 22.9372 13.906H24.8805C25.0822 13.906 25.2472 14.0673 25.2472 14.2726V21.012Z" fill="#41EC88"/>
</svg>
