<svg width="40" height="40" viewBox="0 0 40 40" fill="none" xmlns="http://www.w3.org/2000/svg">
<rect width="40" height="40" rx="8" fill="#A886F8" fill-opacity="0.2"/>
<path d="M28.4409 24.0796C28.4405 23.9321 28.4014 23.7873 28.3273 23.6597C28.2533 23.5322 28.1469 23.4263 28.019 23.3529V19.3068L27.1752 19.7287V23.3529C27.0529 23.4229 26.9501 23.5227 26.8765 23.643C26.803 23.7633 26.7609 23.9002 26.7543 24.0411C26.7477 24.1819 26.7767 24.3222 26.8387 24.4488C26.9007 24.5755 26.9936 24.6845 27.1089 24.7657L26.6127 26.8921H28.5815L28.0853 24.7657C28.1951 24.688 28.2847 24.5852 28.3465 24.4659C28.4084 24.3465 28.4407 24.2141 28.4409 24.0796Z" fill="#A886F8"/>
<path d="M21.077 22.7778C20.4846 23.074 19.5154 23.074 18.923 22.7778L14.0937 20.3631V23.2812C14.0937 24.9122 16.7381 26.2343 20 26.2343C23.2619 26.2343 25.9062 24.9122 25.9062 23.2812V20.3631L21.077 22.7778Z" fill="#A886F8"/>
<path d="M21.077 22.7778C20.4846 23.074 19.5154 23.074 18.923 22.7778L11.4443 19.0384C10.8519 18.7423 10.8519 18.2577 11.4443 17.9615L18.923 14.2221C19.5154 13.926 20.4846 13.926 21.077 14.2221L28.5557 17.9615C29.1481 18.2577 29.1481 18.7423 28.5557 19.0384L21.077 22.7778Z" fill="#C6AEFF"/>
</svg>
