<svg width="40" height="40" viewBox="0 0 40 40" fill="none" xmlns="http://www.w3.org/2000/svg">
<rect width="40" height="40" rx="8" fill="#F56646" fill-opacity="0.2"/>
<g clip-path="url(#clip0_4106_1722)">
<path fill-rule="evenodd" clip-rule="evenodd" d="M20.1014 10C16.1795 10 13 13.1795 13 17.1017C13 22.5465 20.1014 29.0791 20.1014 29.0791C20.1014 29.0791 20.1039 29.0768 20.1089 29.0725C20.3674 28.8452 27.203 22.78 27.203 17.1017C27.203 13.1795 24.0232 10 20.1014 10ZM20.1014 14.3331C18.4387 14.3331 17.0909 15.6809 17.0909 17.3436C17.0909 19.0062 18.4387 20.3541 20.1014 20.3541C20.8998 20.3541 21.6655 20.0366 22.2301 19.472C22.7947 18.9074 23.1118 18.142 23.1118 17.3436C23.1118 16.6927 22.9011 16.0634 22.5173 15.5471C22.3283 15.2934 22.1003 15.0704 21.8421 14.8871C21.3366 14.529 20.7291 14.3331 20.1014 14.3331Z" fill="#F56646"/>
<path fill-rule="evenodd" clip-rule="evenodd" d="M22.0321 27.163C22.032 27.163 22.0322 27.163 22.0321 27.163V27.163Z" fill="#FFD32A"/>
</g>
<defs>
<clipPath id="clip0_4106_1722">
<rect width="20" height="20" fill="white" transform="translate(10 10)"/>
</clipPath>
</defs>
</svg>
