<svg width="40" height="40" viewBox="0 0 40 40" fill="none" xmlns="http://www.w3.org/2000/svg">
<rect width="40" height="40" rx="8" fill="#2587F8" fill-opacity="0.2"/>
<g clip-path="url(#clip0_4106_487)">
<g clip-path="url(#clip1_4106_487)">
<path d="M10.8335 19.9999C10.8335 13.3333 13.3335 10.8333 20.0002 10.8333C26.6668 10.8333 29.1668 13.3333 29.1668 19.9999C29.1668 26.6666 26.6668 29.1666 20.0002 29.1666C13.3335 29.1666 10.8335 26.6666 10.8335 19.9999Z" fill="#2587F8"/>
<path fill-rule="evenodd" clip-rule="evenodd" d="M23.5 15H16.6667C16.3456 14.9984 16.0308 15.0895 15.7603 15.2625C15.4897 15.4354 15.2749 15.6829 15.1417 15.975C15.3948 16.0077 15.6259 16.136 15.7875 16.3336C15.9492 16.5312 16.0291 16.7831 16.011 17.0377C15.9929 17.2924 15.8781 17.5304 15.6901 17.7031C15.5022 17.8759 15.2553 17.9701 15 17.9667V19C15.2648 19.0029 15.5183 19.1073 15.7083 19.2917C15.8351 19.4332 15.919 19.6079 15.9501 19.7954C15.9812 19.9828 15.9582 20.1753 15.8839 20.3502C15.8096 20.525 15.687 20.6751 15.5304 20.7828C15.3739 20.8906 15.1899 20.9514 15 20.9584V21.9917C15.2537 21.9926 15.4976 22.09 15.6822 22.2641C15.8668 22.4381 15.9784 22.6758 15.9943 22.929C16.0102 23.1823 15.9292 23.4321 15.7678 23.6278C15.6064 23.8236 15.3766 23.9507 15.125 23.9834C15.2531 24.2859 15.4679 24.5438 15.7422 24.7247C16.0164 24.9056 16.3381 25.0014 16.6667 25H20.7917C21.795 23.2435 23.2474 21.7853 25 20.775V16.5C24.9978 16.1029 24.8391 15.7226 24.5582 15.4418C24.2774 15.1609 23.8972 15.0022 23.5 15Z" fill="white"/>
<path fill-rule="evenodd" clip-rule="evenodd" d="M20.7749 25V22.425C20.7749 21.9829 20.9505 21.559 21.2631 21.2465C21.5756 20.9339 21.9995 20.7583 22.4416 20.7583H24.9999L20.7749 25Z" fill="#1462BC"/>
</g>
</g>
<defs>
<clipPath id="clip0_4106_487">
<rect width="20" height="20" fill="white" transform="translate(10 10)"/>
</clipPath>
<clipPath id="clip1_4106_487">
<rect width="20" height="20" fill="white" transform="translate(10 10)"/>
</clipPath>
</defs>
</svg>
